<svg xmlns="http://www.w3.org/2000/svg" width="512" height="509" viewBox="0 0 512 509" version="1.1">
	<path d="M 236 0.618 C 195.864 4.280, 157.747 16.420, 125.114 35.932 C 56.849 76.749, 12.947 143.376, 1.850 223 C 0.116 235.446, 0.116 273.554, 1.850 286 C 8.482 333.587, 26.873 376.849, 55.840 413 C 65.545 425.113, 77.173 437.235, 87.434 445.936 C 127.135 479.603, 169.021 498.651, 221 506.677 C 236.532 509.075, 275.636 509.079, 291.305 506.685 C 336.534 499.773, 374.770 483.902, 410.611 457.165 C 424.310 446.946, 444.585 427.518, 454.888 414.740 C 485.138 377.222, 505.587 328.735, 510.052 283.943 C 510.680 277.649, 511.600 271.719, 512.097 270.764 C 513.372 268.313, 513.280 236.709, 512 237.500 C 511.393 237.875, 510.993 236.423, 510.982 233.809 C 510.972 231.439, 510.323 225, 509.540 219.500 C 501.520 163.129, 473.791 109.304, 432.791 70.519 C 393.983 33.806, 345.443 10.369, 291.804 2.443 C 281.861 0.974, 245.228 -0.224, 236 0.618 M 0.409 254.500 C 0.408 263.850, 0.558 267.810, 0.743 263.299 C 0.928 258.789, 0.929 251.139, 0.745 246.299 C 0.562 241.460, 0.410 245.150, 0.409 254.500" stroke="none" fill="black" fill-rule="evenodd"/>
</svg>